<?xml version="1.0" encoding="utf-8"?>
<!-- Generator: Adobe Illustrator 23.0.3, SVG Export Plug-In . SVG Version: 6.00 Build 0)  -->
<svg version="1.1" id="Calque_1" xmlns="http://www.w3.org/2000/svg" xmlns:xlink="http://www.w3.org/1999/xlink" x="0px" y="0px"
	 viewBox="0 0 471.96 468.54" style="enable-background:new 0 0 471.96 468.54;" xml:space="preserve">
<style type="text/css">
	.st0{fill:#FDF4F7;}
</style>
<path class="st0" d="M234.25,468.26C114.29,473.09-0.53,367.02,0,233.12C0.52,102.36,116.6-0.55,237.75,0
	c118.34,0.54,235.49,103.61,234.2,236.61C470.67,368.08,356.82,474.66,234.25,468.26z M112.8,395.22
	c62.54,44.9,125.9,54.62,197.21,27.66c-3.83-51.76-19.03-99.79-38.21-148.02C204.64,297.46,151.59,333.65,112.8,395.22z
	 M88.41,370.74c42.19-63.8,102.4-100.62,171.65-127.33c-8.61-14.99-11.16-28.56-23.33-39.31c-65.29,19.01-132.6,28.02-200.72,24.57
	C32.35,280.94,49.95,328.73,88.41,370.74z M38.4,193.24c64.49,4.96,124.2,0.68,184.69-20.19c-24.3-41.48-45.44-82.52-78.23-117.86
	C87.41,85.34,53.92,130.33,38.4,193.24z M178.15,40.83c30.33,40.35,53.24,80.36,78.32,121.22c45.48-17.11,84.15-39.1,107.59-84.22
	C307.39,36.37,248.98,20.22,178.15,40.83z M438.09,236.45c-2.17-52.89-16.12-94.98-50.22-133.43
	c-28.37,45.94-70.01,68.6-114.97,88.4c6.16,15.27,11.19,29.64,21.1,44.12C340.58,225.74,387.47,227.07,438.09,236.45z
	 M306.29,266.64c16.52,45.24,27.28,90.71,38.59,139.11c49.27-34.65,77.32-77.38,89.04-133.77
	C390.95,257.27,350.31,259.24,306.29,266.64z"/>
</svg>
