<?xml version="1.0" encoding="utf-8"?>
<!-- Generator: Adobe Illustrator 23.0.3, SVG Export Plug-In . SVG Version: 6.00 Build 0)  -->
<svg version="1.1" id="Calque_1" xmlns="http://www.w3.org/2000/svg" xmlns:xlink="http://www.w3.org/1999/xlink" x="0px" y="0px"
	 viewBox="0 0 471.96 468.54" style="enable-background:new 0 0 471.96 468.54;" xml:space="preserve">
<style type="text/css">
	.st0{fill:#F4F6F9;}
</style>
<path class="st0" d="M181.51,136.77c3.74-13.59,1.89-26.11,2.39-38.41c2.22-54.53,38.13-89.42,92.5-89.72
	c11.56-0.06,23.13-0.08,34.68,0.34c25.54,0.93,35.74,11.45,36.91,37.58c0.09,1.92,0,3.85,0.03,5.78
	c0.81,53.85-2.41,57.55-54.49,62.13c-5.09,6.73-4.02,13.82,0.63,24.71c10.77,0,23.02-0.74,35.16,0.15
	c26.24,1.93,35.89,14.52,31.71,40.01c-0.16,0.95-0.45,1.87-0.64,2.82c-14.05,68.33-14.47,56.59-66.33,62.56
	c-6.32,7.4-3.82,16.42-3.86,24.77c-0.24,49.14,0.08,98.28-0.19,147.41c-0.18,33.06-10.11,42.65-43.15,43.02
	c-60.79,0.69-62.98-1.51-62.98-63.22c0-40.47,0.08-80.93-0.06-121.4c-0.03-9.44-0.83-18.87-1.33-29.53
	c-17.72-5.73-39.21,1.75-50.85-16.82c-10.59-16.9-5.35-35.79-5.33-53.69C126.33,147.42,134.39,142.3,181.51,136.77z M217.29,211.54
	c0,74.16,0,145.1,0,217.1c14.78,1.12,26.81,4.22,41.12-3.97c0-70.19,0-141.14,0-213.83c22.02,0,41.14,0,60.66,0
	c3.85-13.36,9.33-24.64,6.87-38.11c-22.47-6.26-46.16,2.66-68.93-5.95c0-20.26-0.4-39.52,0.11-58.75c0.55-20.93,4.32-23.97,26-25.72
	c10.14-0.82,21.15,3.44,30.7-4.25c1.15-11.57,2.78-22.89-1.8-35.14c-7.86-0.39-15.5-0.15-22.95-1.23
	c-49.99-7.25-75.48,24.51-72.45,68.98c1.29,18.94,0.22,38.05,0.22,56.8c-20.07,6.65-38.95-0.67-57.18,5.96
	c-0.15,13.1-3.8,25.28,3.75,38.11C179.73,211.54,195.99,211.54,217.29,211.54z"/>
</svg>
