<?xml version="1.0" encoding="utf-8"?>
<!-- Generator: Adobe Illustrator 23.0.3, SVG Export Plug-In . SVG Version: 6.00 Build 0)  -->
<svg version="1.1" id="Calque_1" xmlns="http://www.w3.org/2000/svg" xmlns:xlink="http://www.w3.org/1999/xlink" x="0px" y="0px"
	 viewBox="0 0 471.96 468.54" style="enable-background:new 0 0 471.96 468.54;" xml:space="preserve">
<style type="text/css">
	.st0{fill:#FBF0EF;}
</style>
<path class="st0" d="M320.75,299.79c-33.16-5.38-66.21,0.5-100.09-3.74c0-38.21,0-74.68,0-111.03c22.41-4.98,184.61-6.5,234.11-2.18
	c9.35,13.46,7.29,30.35,8.11,45.71c4.75,89.63-33.43,173.43-119.21,211.47c-127.89,56.73-287.58-2.09-327.29-153.52
	C-16.53,161,73.89,27.75,202.5,9.28c59.98-8.62,114.73,2.03,165.56,34.27c17.71,11.23,32.18,25.89,45.65,44.83
	c-28.84,25.97-56.81,51.15-86.7,78.06c-30.06-32.93-66.26-46.13-108.48-36.55c-29.08,6.6-50.96,25.05-66.4,50.08
	c-31.2,50.59-14.02,114.55,38.18,145.22C238.05,353.25,298.35,342.45,320.75,299.79z M326.3,133.37
	c19.41-14.11,34.98-30.38,50.63-46.5c-52.36-60.53-172.02-75.5-253.37-15.63C40,132.73,13.3,242.88,63.26,329.31
	c58.98,102.04,169.42,126.98,266.09,88.7c95.65-37.87,122.93-148.25,105.14-208.53c-61.93,0-124.12,0-188.98,0
	c1.2,21.56-3.61,41.78,3.64,64.14c37.14,0,73.68,0,110.46,0c-6.74,47.05-44.2,80.49-96.54,88.35
	c-54.97,8.26-111.81-21.77-136.73-72.22c-24.41-49.43-12.75-110.45,27.78-148.87C192.64,104.39,260.2,87.92,326.3,133.37z"/>
</svg>
