<?xml version="1.0" encoding="utf-8"?>
<!-- Generator: Adobe Illustrator 23.0.3, SVG Export Plug-In . SVG Version: 6.00 Build 0)  -->
<svg version="1.1" id="Calque_1" xmlns="http://www.w3.org/2000/svg" xmlns:xlink="http://www.w3.org/1999/xlink" x="0px" y="0px"
	 viewBox="0 0 471.96 468.54" style="enable-background:new 0 0 471.96 468.54;" xml:space="preserve">
<style type="text/css">
	.st0{fill:#F2F1F1;}
</style>
<g>
	<path class="st0" d="M7.25,235.27c0-28.54-0.36-57.09,0.07-85.62C8.57,66.86,46.2,19.44,127.45,10.69
		c72.63-7.82,146.3-7.3,219.21,0.59c75.13,8.14,110.35,57.6,114.3,123.71c3.97,66.45,3.83,133.21,0.1,199.68
		c-4.11,73.32-44.61,116.18-116.7,124.06c-72.89,7.96-146.13,7.04-219.16,0.4C42.95,451.64,10.21,392.73,7.82,332.29
		C6.54,300,7.59,267.61,7.59,235.27C7.48,235.27,7.36,235.27,7.25,235.27z M234.12,41.21c0-0.07,0-0.15,0-0.22
		c-31.36,0-62.72-0.49-94.07,0.1c-60.39,1.14-93.58,28.79-97.92,88.19c-5.13,70.1-4.49,140.65-0.2,210.81
		c3.01,49.2,24.87,86.81,97.44,89.06c63.62,1.97,127.39,1.83,191.02,0.01c62.3-1.78,92.46-32.76,96.26-87.04
		c5.05-72.07,5.9-144.4-0.45-216.36c-4.87-55.23-36.96-82.92-92.31-84.39C300.66,40.49,267.38,41.21,234.12,41.21z"/>
	<path class="st0" d="M230.83,351.87c-67.58-2.58-117.2-56.15-114.37-123.49c2.61-62.19,59.94-114.71,121.7-111.49
		c66.98,3.49,117.84,58.76,114.56,124.51C349.54,304.85,294.96,354.33,230.83,351.87z M322.61,235.44
		c1.19-44.77-32.48-89.52-87.58-90.13c-50.24-0.56-88.28,38.99-88.87,89.06c-0.58,49.25,38.98,89.66,87.82,89.99
		C282.79,324.69,322.52,284.83,322.61,235.44z"/>
	<path class="st0" d="M354.05,86.85c17.02-0.39,29.63,11.05,30.01,27.23c0.37,15.59-13.04,28.95-29.12,28.98
		c-14.67,0.03-27.21-11.9-28.16-26.79C325.7,99.49,337.06,87.24,354.05,86.85z"/>
</g>
</svg>
