<?xml version="1.0" encoding="utf-8"?>
<!-- Generator: Adobe Illustrator 19.2.1, SVG Export Plug-In . SVG Version: 6.00 Build 0)  -->
<svg version="1.1" id="Calque_1" xmlns="http://www.w3.org/2000/svg" xmlns:xlink="http://www.w3.org/1999/xlink" x="0px" y="0px"
	 viewBox="0 0 472 468.5" style="enable-background:new 0 0 472 468.5;" xml:space="preserve">
<style type="text/css">
	.st0{fill:#F0F8FD;stroke:#F0F8FD;stroke-width:16;stroke-miterlimit:10;}
</style>
<path id="XMLID_1_" class="st0" d="M193.2,171h67.3c2.7,0,4.9,2.2,4.9,4.9v20.6c5.5-6,12.4-11.5,20.9-15.9
	c11.2-5.9,25.2-9.7,41.5-9.7c37.4,0,59.8,11.9,72.8,31.4c12.8,19.2,16.3,45.5,16.3,75.1v117.1c0,2.7-2.2,4.9-4.9,4.9h-70.1
	c-2.7,0-4.9-2.2-4.9-4.9V290.8c0-11.9-0.1-25.5-4.4-35.7c-3.9-9.2-11.7-16-27.1-16c-16.2,0-25.3,5.8-30.5,14.5
	c-5.5,9.2-6.7,22.2-6.7,35.3v105.6c0,2.7-2.2,4.9-4.9,4.9h-70.1c-2.7,0-4.9-2.2-4.9-4.9V175.8c0-2.7,2.2-4.9,4.9-4.9V171z
	 M255.6,180.9h-57.4v208.9h60.1V289.1c0-14.7,1.6-29.2,8.1-40.4c6.8-11.7,18.7-19.4,39-19.4c20.5,0,30.9,9.2,36.3,22.1
	c5,12,5.1,26.7,5.1,39.5v98.9H407V277.7c0-27.8-3.2-52.4-14.6-69.7c-11.2-16.9-31-27.1-64.6-27.1c-14.6,0-27,3.4-37,8.6
	c-12,6.2-20.4,14.9-25.1,23.3c-0.8,1.5-2.4,2.5-4.3,2.5h-0.9c-2.7,0-4.9-2.2-4.9-4.9v-29.5H255.6z M149.6,115.1
	c0,11.5-4.6,21.8-12.2,29.3c-7.5,7.5-17.9,12.2-29.3,12.2s-21.8-4.6-29.3-12.2c-7.5-7.5-12.2-17.9-12.2-29.3s4.6-21.8,12.2-29.3
	c7.5-7.5,17.9-12.2,29.3-12.2s21.8,4.6,29.3,12.2C144.9,93.3,149.6,103.7,149.6,115.1z M130.5,137.4c5.7-5.7,9.2-13.6,9.2-22.3
	s-3.6-16.6-9.2-22.3c-5.7-5.7-13.6-9.2-22.3-9.2S91.6,87.2,86,92.8s-9.2,13.6-9.2,22.3s3.6,16.6,9.2,22.3c5.7,5.7,13.6,9.2,22.3,9.2
	S124.8,143.1,130.5,137.4z M71.8,170.9h72.9c2.7,0,4.9,2.2,4.9,4.9v218.8c0,2.7-2.2,4.9-4.9,4.9H71.8c-2.7,0-4.9-2.2-4.9-4.9V175.9
	C66.8,173.1,69,170.9,71.8,170.9z M139.8,180.8h-63v208.9h63V180.8z"/>
</svg>
