<?xml version="1.0" encoding="utf-8"?>
<!-- Generator: Adobe Illustrator 23.0.3, SVG Export Plug-In . SVG Version: 6.00 Build 0)  -->
<svg version="1.1" id="Calque_1" xmlns="http://www.w3.org/2000/svg" xmlns:xlink="http://www.w3.org/1999/xlink" x="0px" y="0px"
	 viewBox="0 0 471.96 468.54" style="enable-background:new 0 0 471.96 468.54;" xml:space="preserve">
<style type="text/css">
	.st0{fill:#F0F8FD;}
</style>
<path class="st0" d="M381.52,70.96c10.39-4.51,20.83-8.64,30.89-13.53c9.61-4.67,18.28-2.57,26.71,2.36
	c18.01,10.52,32.33,59.78,17.97,74.14c-26.95,26.96-31.65,60.7-41.03,94.9C366.43,409.91,168.9,463.82,31.15,383.37
	c-11.13-6.5-20.34-13.83-21.53-27.4c-1.37-15.63,12.13-29.75,29.7-31.09c7.44-0.57,15,0.5,22.49,0.34
	c6.51-0.14,13.01-0.95,24.58-1.86c-30.18-25.62-32.38-62.42-50.71-91.46c-10.3-16.32-15.21-36.47-6.81-56.64
	c3.49-8.4,0.86-16.68-1.14-24.82c-5.71-23.19-0.09-44.85,9.92-65.33c11.95-24.45,35.9-28.49,54.71-8.48
	c25.62,27.25,55.03,47.91,90.74,59.24c5.27,1.67,10.86,2.33,18.34,3.88c11.45-38.98,34-68.57,72.55-83.55
	C312.25,41.33,347.54,50.11,381.52,70.96z M159.86,321.98c-30.91,26.67-65.5,32.53-101.22,37c6.8,10.19,17.46,11.94,26.71,15.57
	c32.96,12.93,67.46,14.23,102.24,12.06c102.39-6.39,187.52-85.46,201.67-190.22c3.35-24.84,4.86-47.42,27.14-62.81
	c0.87-0.6,0.3-3.29,0.41-5.31c-6.78-5.31-16.21,2.73-22.9-3.78c4.87-10.45,18.9-14.92,19.16-30.46
	c-14.38,4.01-26.66,7.43-40.07,11.17c-28.43-25.78-61.16-32.43-95.88-15.98c-35.93,17.02-46.41,48.91-40.66,87.26
	c-68.33-3.08-121.23-31.83-167.81-76.88c-11.86,19.64-11.54,36.32-6.65,54.1c4.9,17.83,17.82,30.3,30.39,44.2
	c-12.04,3.09-20.52-7.24-31.23,0.72c0,36.1,25.92,52.78,55.21,67.08c-8.88,5.47-18.44,0.89-26.43,8.22
	C102.54,303.37,126.78,316.24,159.86,321.98z"/>
</svg>
